<svg xmlns="http://www.w3.org/2000/svg" xmlns:xlink="http://www.w3.org/1999/xlink"><defs><radialGradient id="paint1_radial" cx="0" cy="0" r="1" gradientUnits="userSpaceOnUse" gradientTransform="matrix(52.1647 0 0 50.5319 43.796 5.559)"><stop offset="0.129" stop-color="#FFBD4F"/><stop offset="0.186" stop-color="#FFAC31"/><stop offset="0.247" stop-color="#FF9D17"/><stop offset="0.283" stop-color="#FF980E"/><stop offset="0.403" stop-color="#FF563B"/><stop offset="0.467" stop-color="#FF3750"/><stop offset="0.71" stop-color="#F5156C"/><stop offset="0.782" stop-color="#EB0878"/><stop offset="0.86" stop-color="#E50080"/></radialGradient><radialGradient id="paint2_radial" cx="0" cy="0" r="1" gradientUnits="userSpaceOnUse" gradientTransform="matrix(52.1647 0 0 50.5319 24.735 26.218)"><stop offset="0.3" stop-color="#960E18"/><stop offset="0.351" stop-color="#B11927" stop-opacity="0.74"/><stop offset="0.435" stop-color="#DB293D" stop-opacity="0.343"/><stop offset="0.497" stop-color="#F5334B" stop-opacity="0.094"/><stop offset="0.53" stop-color="#FF3750" stop-opacity="0"/></radialGradient><radialGradient id="paint3_radial" cx="0" cy="0" r="1" gradientUnits="userSpaceOnUse" gradientTransform="matrix(37.7909 0 0 36.6082 31.022 -5.909)"><stop offset="0.132" stop-color="#FFF44F"/><stop offset="0.252" stop-color="#FFDC3E"/><stop offset="0.506" stop-color="#FF9D12"/><stop offset="0.526" stop-color="#FF980E"/></radialGradient><radialGradient id="paint4_radial" cx="0" cy="0" r="1" gradientUnits="userSpaceOnUse" gradientTransform="matrix(24.8378 0 0 24.0605 18.963 39.417)"><stop offset="0.353" stop-color="#3A8EE6"/><stop offset="0.472" stop-color="#5C79F0"/><stop offset="0.669" stop-color="#9059FF"/><stop offset="1" stop-color="#C139E6"/></radialGradient><radialGradient id="paint5_radial" cx="0" cy="0" r="1" gradientUnits="userSpaceOnUse" gradientTransform="matrix(12.80005 -2.99775 3.41139 14.56626 27.583 22.076)"><stop offset="0.206" stop-color="#9059FF" stop-opacity="0"/><stop offset="0.278" stop-color="#8C4FF3" stop-opacity="0.064"/><stop offset="0.747" stop-color="#7716A8" stop-opacity="0.45"/><stop offset="0.975" stop-color="#6E008B" stop-opacity="0.6"/></radialGradient><radialGradient id="paint6_radial" cx="0" cy="0" r="1" gradientUnits="userSpaceOnUse" gradientTransform="matrix(17.8682 0 0 17.3092 24.075 3.491)"><stop stop-color="#FFE226"/><stop offset="0.121" stop-color="#FFDB27"/><stop offset="0.295" stop-color="#FFC82A"/><stop offset="0.502" stop-color="#FFA930"/><stop offset="0.732" stop-color="#FF7E37"/><stop offset="0.792" stop-color="#FF7139"/></radialGradient><radialGradient id="paint7_radial" cx="0" cy="0" r="1" gradientUnits="userSpaceOnUse" gradientTransform="matrix(76.236 0 0 73.85 38.12 -7.487)"><stop offset="0.113" stop-color="#FFF44F"/><stop offset="0.456" stop-color="#FF980E"/><stop offset="0.622" stop-color="#FF5634"/><stop offset="0.716" stop-color="#FF3647"/><stop offset="0.904" stop-color="#E31587"/></radialGradient><radialGradient id="paint8_radial" cx="0" cy="0" r="1" gradientUnits="userSpaceOnUse" gradientTransform="rotate(83.783 17.732 15.977) scale(54.146 36.6568)"><stop stop-color="#FFF44F"/><stop offset="0.06" stop-color="#FFE847"/><stop offset="0.168" stop-color="#FFC830"/><stop offset="0.304" stop-color="#FF980E"/><stop offset="0.356" stop-color="#FF8B16"/><stop offset="0.455" stop-color="#FF672A"/><stop offset="0.57" stop-color="#FF3647"/><stop offset="0.737" stop-color="#E31587"/></radialGradient><radialGradient id="paint9_radial" cx="0" cy="0" r="1" gradientUnits="userSpaceOnUse" gradientTransform="matrix(47.5954 0 0 46.1059 23.654 9.902)"><stop offset="0.137" stop-color="#FFF44F"/><stop offset="0.48" stop-color="#FF980E"/><stop offset="0.592" stop-color="#FF5634"/><stop offset="0.655" stop-color="#FF3647"/><stop offset="0.904" stop-color="#E31587"/></radialGradient><radialGradient id="paint10_radial" cx="0" cy="0" r="1" gradientUnits="userSpaceOnUse" gradientTransform="matrix(52.093 0 0 50.4625 36.218 12.601)"><stop offset="0.094" stop-color="#FFF44F"/><stop offset="0.231" stop-color="#FFE141"/><stop offset="0.509" stop-color="#FFAF1E"/><stop offset="0.626" stop-color="#FF980E"/></radialGradient><linearGradient id="chrome_0" x1="25.0491" y1="15.9494" x2="25.0491" y2="34.2731" gradientUnits="userSpaceOnUse"><stop stop-color="#81B4E0"/><stop offset="1" stop-color="#0C5A94"/></linearGradient><linearGradient id="chrome_1" x1="25.843" y1="0.0390656" x2="25.843" y2="20.3974" gradientUnits="userSpaceOnUse"><stop stop-color="#F06B59"/><stop offset="1" stop-color="#DF2227"/></linearGradient><linearGradient id="chrome_2" x1="6.0982" y1="42.9049" x2="16.3872" y2="25.9" gradientUnits="userSpaceOnUse"><stop stop-color="#388B41"/><stop offset="1" stop-color="#4CB749"/></linearGradient><linearGradient id="chrome_3" x1="40.5834" y1="44.7134" x2="29.6242" y2="18.3128" gradientUnits="userSpaceOnUse"><stop stop-color="#E4B022"/><stop offset="0.3" stop-color="#FCD209"/></linearGradient><linearGradient id="chrome_4" x1="9.50639" y1="27.7801" x2="9.50639" y2="9.8834" gradientUnits="userSpaceOnUse"><stop stop-opacity="0.15"/><stop offset="0.3" stop-opacity="0.06"/><stop offset="1" stop-opacity="0.03"/></linearGradient><linearGradient id="chrome_5" x1="34.218" y1="33.5592" x2="21.9143" y2="46.0909" gradientUnits="userSpaceOnUse"><stop stop-opacity="0.15"/><stop offset="0.3" stop-opacity="0.06"/><stop offset="1" stop-opacity="0.03"/></linearGradient><linearGradient id="chrome_6" x1="34.0394" y1="37.1634" x2="35.8285" y2="19.4909" gradientUnits="userSpaceOnUse"><stop stop-opacity="0.15"/><stop offset="0.3" stop-opacity="0.06"/><stop offset="1" stop-opacity="0.03"/></linearGradient><linearGradient id="ff_0" x1="44.9" y1="7.75" x2="3.30083" y2="46.538" gradientUnits="userSpaceOnUse"><stop offset="0.048" stop-color="#FFF44F"/><stop offset="0.111" stop-color="#FFE847"/><stop offset="0.225" stop-color="#FFC830"/><stop offset="0.368" stop-color="#FF980E"/><stop offset="0.401" stop-color="#FF8B16"/><stop offset="0.462" stop-color="#FF672A"/><stop offset="0.534" stop-color="#FF3647"/><stop offset="0.705" stop-color="#E31587"/></linearGradient><linearGradient id="ff_11" x1="44.3872" y1="7.55" x2="8.98756" y2="41.7398" gradientUnits="userSpaceOnUse"><stop offset="0.167" stop-color="#FFF44F" stop-opacity="0.8"/><stop offset="0.266" stop-color="#FFF44F" stop-opacity="0.634"/><stop offset="0.489" stop-color="#FFF44F" stop-opacity="0.217"/><stop offset="0.6" stop-color="#FFF44F" stop-opacity="0"/></linearGradient></defs><symbol viewBox="0 0 50 50" id="symbol_chrome"><path d="M25.06 49.704c13.596 0 24.617-11.018 24.617-24.608 0-13.591-11.021-24.61-24.617-24.61S.443 11.505.443 25.096c0 13.59 11.021 24.608 24.617 24.608z" fill="white"/>o9<path d="M40.725 29.57c0-8.65-7.014-15.66-15.665-15.66-8.652 0-15.665 7.01-15.665 15.66h4.475c0-6.178 5.01-11.186 11.19-11.186s11.19 5.008 11.19 11.186" style="fill:#000;opacity:.1"/><path d="M26.179 36.728a8.503 8.503 0 008.504-8.5 8.503 8.503 0 00-8.504-8.502 8.503 8.503 0 00-8.504 8.501 8.503 8.503 0 008.504 8.501z" style="fill:#000;opacity:.1"/><path d="M25.06 34.267c5.067 0 9.175-4.106 9.175-9.172 0-5.066-4.108-9.172-9.175-9.172-5.067 0-9.175 4.106-9.175 9.172 0 5.066 4.108 9.172 9.175 9.172z" fill="url(#chrome_0)"/><path d="M47.439 13.91C41.278 1.517 26.234-3.536 13.839 2.623A25.058 25.058 0 004.248 11l10.07 17.45c-1.854-5.893 1.421-12.173 7.316-14.027a11.19 11.19 0 013.202-.515" fill="url(#chrome_1)"/><path d="M4.248 11.002C-3.46 22.495-.388 38.06 11.11 45.766a25.07 25.07 0 0011.936 4.162L33.564 32.03c-3.933 4.766-10.985 5.44-15.752 1.51a11.187 11.187 0 01-3.494-5.09" fill="url(#chrome_2)"/><path d="M23.046 49.928c13.803 1.043 25.839-9.298 26.883-23.096a25.045 25.045 0 00-2.49-12.922H24.836a11.184 11.184 0 018.728 18.121" fill="url(#chrome_3)"/><path d="M4.248 11.002l10.07 17.45a11.182 11.182 0 01.447-7.607L4.695 10.33" fill="url(#chrome_4)"/><path d="M23.046 49.928L33.564 32.03a11.194 11.194 0 01-6.49 3.803l-4.476 14.093" fill="url(#chrome_4)"/><path d="M47.439 13.91H24.836a11.193 11.193 0 018.728 4.25l14.322-3.579" fill="url(#chrome_6)"/></symbol><symbol viewBox="0 0 50 50" id="symbol_firefox"><path d="M48.19 16.786c-1.098-2.54-3.293-5.273-5.023-6.13a24.65 24.65 0 012.537 7.35v.043c-2.822-6.836-7.618-9.588-11.537-15.592a19 19 0 01-.594-.925c-.11-.188-.194-.35-.278-.5a4.326 4.326 0 01-.375-.964.061.061 0 00-.014-.04.065.065 0 00-.037-.022.093.093 0 00-.065 0v.012c0 .013-.02 0-.02 0V.006C26.51 3.57 24.373 10.175 24.18 13.47a12.761 12.761 0 00-6.89 2.577 7.472 7.472 0 00-.645-.476 10.9 10.9 0 01-.064-5.941 18.466 18.466 0 00-6.03 4.515c-1.001-1.213-.93-5.228-.872-6.066a4.528 4.528 0 00-.84.425 18.062 18.062 0 00-2.453 2.033 21.324 21.324 0 00-2.324 2.72A20.159 20.159 0 00.705 20.6l-.045.169c-.046.206-.22 1.275-.246 1.5v.063a22.413 22.413 0 00-.4 3.34v.125C.023 31.864 2.38 37.706 6.62 42.17c4.24 4.465 10.052 7.227 16.292 7.742 6.24.516 12.451-1.254 17.41-4.959 4.958-3.705 8.302-9.076 9.372-15.052.045-.313.077-.626.116-.939a24.21 24.21 0 00-1.614-12.176h-.006zM19.35 35.754c.116.063.225.126.342.17l.019.012a10.348 10.348 0 01-.355-.188l-.007.007zm26.36-17.711v-.019.025-.006z" fill="url(#ff_0)"/><path d="M48.191 16.786c-1.098-2.54-3.293-5.273-5.023-6.13a24.649 24.649 0 012.537 7.35v.05a21.32 21.32 0 01-.774 16.36c-2.867 5.96-9.814 12.07-20.68 11.77-11.737-.312-22.08-8.755-24.017-19.813-.349-1.75 0-2.626.18-4.046a17.523 17.523 0 00-.4 3.34v.125c.01 6.066 2.368 11.908 6.607 16.372 4.24 4.464 10.053 7.227 16.292 7.742 6.24.516 12.452-1.254 17.41-4.959 4.958-3.705 8.302-9.076 9.372-15.053.045-.312.078-.625.117-.938a24.21 24.21 0 00-1.614-12.177l-.007.007z" fill="url(#paint1_radial)"/><path d="M48.191 16.786c-1.098-2.54-3.293-5.273-5.023-6.13a24.649 24.649 0 012.537 7.35v.05a21.32 21.32 0 01-.774 16.36c-2.867 5.96-9.814 12.07-20.68 11.77-11.737-.312-22.08-8.755-24.017-19.813-.349-1.75 0-2.626.18-4.046a17.523 17.523 0 00-.4 3.34v.125c.01 6.066 2.368 11.908 6.607 16.372 4.24 4.464 10.053 7.227 16.292 7.742 6.24.516 12.452-1.254 17.41-4.959 4.958-3.705 8.302-9.076 9.372-15.053.045-.312.078-.625.117-.938a24.21 24.21 0 00-1.614-12.177l-.007.007z" fill="url(#paint2_radial)"/><path d="M36.026 19.631c.064.038.103.075.155.113a13.254 13.254 0 00-2.325-2.94C26.083 9.274 31.823.47 32.791.024V.007c-6.275 3.565-8.412 10.17-8.606 13.465.29-.019.581-.037.878-.037 2.229.003 4.417.577 6.343 1.665a12.432 12.432 0 014.62 4.526v.006z" fill="url(#paint3_radial)"/><path d="M25.082 21.145c-.045.594-2.24 2.677-3.015 2.677-7.115 0-8.264 4.165-8.264 4.165.31 3.515 2.841 6.404 5.888 7.943l.426.187c.246.105.491.203.736.294a11.44 11.44 0 003.254.613c12.474.563 14.889-14.447 5.889-18.806a8.855 8.855 0 016.03 1.426 12.432 12.432 0 00-4.62-4.527 12.943 12.943 0 00-7.221-1.634 12.763 12.763 0 00-6.889 2.577c.387.313.814.726 1.724 1.595 1.698 1.626 6.05 3.296 6.069 3.502l-.007-.012z" fill="url(#paint4_radial)"/><path d="M25.082 21.145c-.045.594-2.24 2.677-3.015 2.677-7.115 0-8.264 4.165-8.264 4.165.31 3.515 2.841 6.404 5.888 7.943l.426.187c.246.105.491.203.736.294a11.44 11.44 0 003.254.613c12.474.563 14.889-14.447 5.889-18.806a8.855 8.855 0 016.03 1.426 12.432 12.432 0 00-4.62-4.527 12.943 12.943 0 00-7.221-1.634 12.763 12.763 0 00-6.889 2.577c.387.313.814.726 1.724 1.595 1.698 1.626 6.05 3.296 6.069 3.502l-.007-.012z" fill="url(#paint5_radial)"/><path d="M16.134 15.241c.194.125.368.231.517.332a10.9 10.9 0 01-.065-5.942 18.467 18.467 0 00-6.03 4.515c.13 0 3.745-.062 5.578 1.089v.006z" fill="url(#paint6_radial)"/><path d="M.239 26.373c1.937 11.052 12.267 19.495 24.017 19.814 10.866.3 17.806-5.817 20.673-11.77a21.32 21.32 0 00.775-16.362v-.05l.013.044c.878 5.616-2.066 11.051-6.676 14.729l-.02.03c-8.974 7.087-17.56 4.279-19.304 3.128a4.25 4.25 0 01-.368-.175c-5.23-2.42-7.399-7.042-6.934-11.008A6.58 6.58 0 018.9 23.8a6.29 6.29 0 01-2.412-2.655 9.661 9.661 0 014.553-1.339 9.695 9.695 0 014.648.982 12.832 12.832 0 009.387.357c-.013-.2-4.364-1.876-6.069-3.503-.904-.863-1.33-1.275-1.717-1.588a7.472 7.472 0 00-.646-.475c-.148-.1-.31-.207-.516-.332-1.821-1.15-5.45-1.088-5.572-1.088h-.013c-.988-1.213-.923-5.229-.865-6.067a4.527 4.527 0 00-.84.426 18.08 18.08 0 00-2.453 2.039 21.335 21.335 0 00-2.343 2.714 20.158 20.158 0 00-3.358 7.342c-.013.05-.904 3.815-.465 5.767l.02-.007z" fill="url(#paint7_radial)"/><path d="M33.863 16.805a13.218 13.218 0 012.324 2.939c.13.106.259.206.375.3 5.681 5.066 2.711 12.227 2.485 12.74 4.604-3.677 7.554-9.112 6.67-14.729-2.841-6.835-7.631-9.587-11.557-15.591-.194-.3-.387-.607-.58-.926-.11-.188-.195-.35-.279-.5a4.327 4.327 0 01-.38-.97.061.061 0 00-.015-.04.065.065 0 00-.037-.022.093.093 0 00-.065 0v.012c0 .013-.02 0-.02 0-.967.45-6.713 9.256 1.073 16.787h.006z" fill="url(#paint8_radial)"/><path d="M36.555 20.044c-.11-.1-.239-.2-.374-.3l-.155-.113a8.855 8.855 0 00-6.037-1.42c9 4.366 6.585 19.389-5.888 18.813a11.443 11.443 0 01-3.248-.606 8.943 8.943 0 01-.736-.288l-.42-.188h.02c1.743 1.151 10.33 3.965 19.317-3.127l.013-.025c.226-.5 3.196-7.674-2.48-12.733l-.012-.013z" fill="url(#paint9_radial)"/><path d="M13.797 27.987s1.162-4.165 8.264-4.165c.775 0 2.97-2.083 3.021-2.69a12.832 12.832 0 01-9.4-.35 9.695 9.695 0 00-4.648-.982 9.66 9.66 0 00-4.552 1.339A6.29 6.29 0 008.9 23.794a6.58 6.58 0 003.522.947c-.472 3.965 1.691 8.587 6.927 11.007.116.063.226.113.342.17-3.053-1.533-5.578-4.422-5.894-7.944v.013z" fill="url(#paint10_radial)"/><path d="M48.19 16.786c-1.098-2.54-3.293-5.273-5.023-6.13a24.65 24.65 0 012.537 7.35v.043c-2.822-6.836-7.618-9.588-11.538-15.592-.206-.3-.4-.606-.593-.925-.11-.188-.194-.35-.278-.5a4.325 4.325 0 01-.375-.964.061.061 0 00-.014-.04.065.065 0 00-.037-.022.093.093 0 00-.065 0v.012c0 .013-.02 0-.02 0V.006C26.51 3.57 24.373 10.175 24.18 13.47c.29-.019.58-.037.878-.037 2.229.003 4.417.577 6.342 1.665a12.432 12.432 0 014.62 4.526 8.856 8.856 0 00-6.03-1.413c9 4.365 6.586 19.387-5.888 18.812a11.443 11.443 0 01-3.254-.607 8.93 8.93 0 01-.736-.287l-.426-.188h.02a9.427 9.427 0 01-.356-.175c.117.063.226.125.343.169-3.054-1.532-5.579-4.422-5.895-7.943 0 0 1.162-4.159 8.264-4.159.775 0 2.97-2.082 3.022-2.69-.013-.187-4.365-1.875-6.07-3.489-.903-.876-1.336-1.282-1.717-1.595a7.472 7.472 0 00-.645-.475 10.9 10.9 0 01-.065-5.942 18.468 18.468 0 00-6.03 4.516c-1-1.213-.93-5.229-.872-6.067a4.528 4.528 0 00-.839.426c-.878.606-1.7 1.286-2.453 2.032a21.33 21.33 0 00-2.325 2.72A20.16 20.16 0 00.71 20.614l-.051.157a46.33 46.33 0 00-.291 1.526A27.356 27.356 0 000 25.673v.125c.01 6.066 2.368 11.908 6.607 16.372 4.24 4.465 10.053 7.227 16.292 7.742 6.24.516 12.451-1.254 17.41-4.959 4.958-3.705 8.302-9.076 9.372-15.052.045-.313.077-.626.116-.939a24.21 24.21 0 00-1.614-12.176h.007zm-2.486 1.25v.02-.02z" fill="url(#ff_11)"/></symbol><use id="use_chrome" xlink:href="#symbol_chrome" width="50" height="50" x="0" y="0"/><use id="use_firefox" xlink:href="#symbol_firefox" width="50" height="50" x="100" y="0"/><view id="chrome" width="50" height="50" viewBox="0 0 50 50"/><view id="firefox" width="50" height="50" viewBox="100 0 50 50"/></svg>