<svg xmlns="http://www.w3.org/2000/svg" xmlns:xlink="http://www.w3.org/1999/xlink"><symbol viewBox="0 0 24 22" id="star"><path id="sa11" d="M12 0l2.694 8.292h8.719l-7.054 5.124 2.694 8.292L12 16.584l-7.053 5.124 2.694-8.292L.587 8.292h8.719L12 0z"/></symbol><mask id="clip"><rect id="bg" x="0" y="0" width="100%" height="100%" fill="black"/><use xlink:href="#star" width="24" height="22" x="0" y="1" fill="white"/><use xlink:href="#star" width="24" height="22" x="25" y="1" fill="white"/><use xlink:href="#star" width="24" height="22" x="50" y="1" fill="white"/><use xlink:href="#star" width="24" height="22" x="75" y="1" fill="white"/><use xlink:href="#star" width="24" height="22" x="100" y="1" fill="white"/></mask><g mask="url(#clip)"><rect width="124" height="24" style="fill:#156f1f"/></g><g mask="url(#clip)" transform="translate(0 50)"><rect width="124" height="24" style="fill:#156f1f"/><rect width="1.2" height="24" style="fill:#3b9946"/></g><g mask="url(#clip)" transform="translate(0 100)"><rect width="124" height="24" style="fill:#156f1f"/><rect width="2.4" height="24" style="fill:#3b9946"/></g><g mask="url(#clip)" transform="translate(0 150)"><rect width="124" height="24" style="fill:#156f1f"/><rect width="3.6" height="24" style="fill:#3b9946"/></g><g mask="url(#clip)" transform="translate(0 200)"><rect width="124" height="24" style="fill:#156f1f"/><rect width="4.8" height="24" style="fill:#3b9946"/></g><g mask="url(#clip)" transform="translate(0 250)"><rect width="124" height="24" style="fill:#156f1f"/><rect width="6" height="24" style="fill:#3b9946"/></g><g mask="url(#clip)" transform="translate(0 300)"><rect width="124" height="24" style="fill:#156f1f"/><rect width="7.2" height="24" style="fill:#3b9946"/></g><g mask="url(#clip)" transform="translate(0 350)"><rect width="124" height="24" style="fill:#156f1f"/><rect width="8.4" height="24" style="fill:#3b9946"/></g><g mask="url(#clip)" transform="translate(0 400)"><rect width="124" height="24" style="fill:#156f1f"/><rect width="9.6" height="24" style="fill:#3b9946"/></g><g mask="url(#clip)" transform="translate(0 450)"><rect width="124" height="24" style="fill:#156f1f"/><rect width="10.8" height="24" style="fill:#3b9946"/></g><g mask="url(#clip)" transform="translate(0 500)"><rect width="124" height="24" style="fill:#156f1f"/><rect width="12" height="24" style="fill:#3b9946"/></g><g mask="url(#clip)" transform="translate(0 550)"><rect width="124" height="24" style="fill:#156f1f"/><rect width="13.2" height="24" style="fill:#3b9946"/></g><g mask="url(#clip)" transform="translate(0 600)"><rect width="124" height="24" style="fill:#156f1f"/><rect width="14.4" height="24" style="fill:#3b9946"/></g><g mask="url(#clip)" transform="translate(0 650)"><rect width="124" height="24" style="fill:#156f1f"/><rect width="15.6" height="24" style="fill:#3b9946"/></g><g mask="url(#clip)" transform="translate(0 700)"><rect width="124" height="24" style="fill:#156f1f"/><rect width="16.8" height="24" style="fill:#3b9946"/></g><g mask="url(#clip)" transform="translate(0 750)"><rect width="124" height="24" style="fill:#156f1f"/><rect width="18" height="24" style="fill:#3b9946"/></g><g mask="url(#clip)" transform="translate(0 800)"><rect width="124" height="24" style="fill:#156f1f"/><rect width="19.2" height="24" style="fill:#3b9946"/></g><g mask="url(#clip)" transform="translate(0 850)"><rect width="124" height="24" style="fill:#156f1f"/><rect width="20.4" height="24" style="fill:#3b9946"/></g><g mask="url(#clip)" transform="translate(0 900)"><rect width="124" height="24" style="fill:#156f1f"/><rect width="21.6" height="24" style="fill:#3b9946"/></g><g mask="url(#clip)" transform="translate(0 950)"><rect width="124" height="24" style="fill:#156f1f"/><rect width="22.8" height="24" style="fill:#3b9946"/></g><g mask="url(#clip)" transform="translate(0 1000)"><rect width="124" height="24" style="fill:#156f1f"/><rect width="25" height="24" style="fill:#3b9946"/></g><g mask="url(#clip)" transform="translate(0 1050)"><rect width="124" height="24" style="fill:#156f1f"/><rect width="26.2" height="24" style="fill:#3b9946"/></g><g mask="url(#clip)" transform="translate(0 1100)"><rect width="124" height="24" style="fill:#156f1f"/><rect width="27.4" height="24" style="fill:#3b9946"/></g><g mask="url(#clip)" transform="translate(0 1150)"><rect width="124" height="24" style="fill:#156f1f"/><rect width="28.6" height="24" style="fill:#3b9946"/></g><g mask="url(#clip)" transform="translate(0 1200)"><rect width="124" height="24" style="fill:#156f1f"/><rect width="29.8" height="24" style="fill:#3b9946"/></g><g mask="url(#clip)" transform="translate(0 1250)"><rect width="124" height="24" style="fill:#156f1f"/><rect width="31" height="24" style="fill:#3b9946"/></g><g mask="url(#clip)" transform="translate(0 1300)"><rect width="124" height="24" style="fill:#156f1f"/><rect width="32.2" height="24" style="fill:#3b9946"/></g><g mask="url(#clip)" transform="translate(0 1350)"><rect width="124" height="24" style="fill:#156f1f"/><rect width="33.4" height="24" style="fill:#3b9946"/></g><g mask="url(#clip)" transform="translate(0 1400)"><rect width="124" height="24" style="fill:#156f1f"/><rect width="34.6" height="24" style="fill:#3b9946"/></g><g mask="url(#clip)" transform="translate(0 1450)"><rect width="124" height="24" style="fill:#156f1f"/><rect width="35.8" height="24" style="fill:#3b9946"/></g><g mask="url(#clip)" transform="translate(0 1500)"><rect width="124" height="24" style="fill:#156f1f"/><rect width="37" height="24" style="fill:#3b9946"/></g><g mask="url(#clip)" transform="translate(0 1550)"><rect width="124" height="24" style="fill:#156f1f"/><rect width="38.2" height="24" style="fill:#3b9946"/></g><g mask="url(#clip)" transform="translate(0 1600)"><rect width="124" height="24" style="fill:#156f1f"/><rect width="39.4" height="24" style="fill:#3b9946"/></g><g mask="url(#clip)" transform="translate(0 1650)"><rect width="124" height="24" style="fill:#156f1f"/><rect width="40.6" height="24" style="fill:#3b9946"/></g><g mask="url(#clip)" transform="translate(0 1700)"><rect width="124" height="24" style="fill:#156f1f"/><rect width="41.8" height="24" style="fill:#3b9946"/></g><g mask="url(#clip)" transform="translate(0 1750)"><rect width="124" height="24" style="fill:#156f1f"/><rect width="43" height="24" style="fill:#3b9946"/></g><g mask="url(#clip)" transform="translate(0 1800)"><rect width="124" height="24" style="fill:#156f1f"/><rect width="44.2" height="24" style="fill:#3b9946"/></g><g mask="url(#clip)" transform="translate(0 1850)"><rect width="124" height="24" style="fill:#156f1f"/><rect width="45.4" height="24" style="fill:#3b9946"/></g><g mask="url(#clip)" transform="translate(0 1900)"><rect width="124" height="24" style="fill:#156f1f"/><rect width="46.6" height="24" style="fill:#3b9946"/></g><g mask="url(#clip)" transform="translate(0 1950)"><rect width="124" height="24" style="fill:#156f1f"/><rect width="47.8" height="24" style="fill:#3b9946"/></g><g mask="url(#clip)" transform="translate(0 2000)"><rect width="124" height="24" style="fill:#156f1f"/><rect width="50" height="24" style="fill:#3b9946"/></g><g mask="url(#clip)" transform="translate(0 2050)"><rect width="124" height="24" style="fill:#156f1f"/><rect width="51.2" height="24" style="fill:#3b9946"/></g><g mask="url(#clip)" transform="translate(0 2100)"><rect width="124" height="24" style="fill:#156f1f"/><rect width="52.4" height="24" style="fill:#3b9946"/></g><g mask="url(#clip)" transform="translate(0 2150)"><rect width="124" height="24" style="fill:#156f1f"/><rect width="53.6" height="24" style="fill:#3b9946"/></g><g mask="url(#clip)" transform="translate(0 2200)"><rect width="124" height="24" style="fill:#156f1f"/><rect width="54.8" height="24" style="fill:#3b9946"/></g><g mask="url(#clip)" transform="translate(0 2250)"><rect width="124" height="24" style="fill:#156f1f"/><rect width="56" height="24" style="fill:#3b9946"/></g><g mask="url(#clip)" transform="translate(0 2300)"><rect width="124" height="24" style="fill:#156f1f"/><rect width="57.2" height="24" style="fill:#3b9946"/></g><g mask="url(#clip)" transform="translate(0 2350)"><rect width="124" height="24" style="fill:#156f1f"/><rect width="58.4" height="24" style="fill:#3b9946"/></g><g mask="url(#clip)" transform="translate(0 2400)"><rect width="124" height="24" style="fill:#156f1f"/><rect width="59.6" height="24" style="fill:#3b9946"/></g><g mask="url(#clip)" transform="translate(0 2450)"><rect width="124" height="24" style="fill:#156f1f"/><rect width="60.8" height="24" style="fill:#3b9946"/></g><g mask="url(#clip)" transform="translate(0 2500)"><rect width="124" height="24" style="fill:#156f1f"/><rect width="62" height="24" style="fill:#3b9946"/></g><g mask="url(#clip)" transform="translate(0 2550)"><rect width="124" height="24" style="fill:#156f1f"/><rect width="63.2" height="24" style="fill:#3b9946"/></g><g mask="url(#clip)" transform="translate(0 2600)"><rect width="124" height="24" style="fill:#156f1f"/><rect width="64.4" height="24" style="fill:#3b9946"/></g><g mask="url(#clip)" transform="translate(0 2650)"><rect width="124" height="24" style="fill:#156f1f"/><rect width="65.6" height="24" style="fill:#3b9946"/></g><g mask="url(#clip)" transform="translate(0 2700)"><rect width="124" height="24" style="fill:#156f1f"/><rect width="66.8" height="24" style="fill:#3b9946"/></g><g mask="url(#clip)" transform="translate(0 2750)"><rect width="124" height="24" style="fill:#156f1f"/><rect width="68" height="24" style="fill:#3b9946"/></g><g mask="url(#clip)" transform="translate(0 2800)"><rect width="124" height="24" style="fill:#156f1f"/><rect width="69.2" height="24" style="fill:#3b9946"/></g><g mask="url(#clip)" transform="translate(0 2850)"><rect width="124" height="24" style="fill:#156f1f"/><rect width="70.4" height="24" style="fill:#3b9946"/></g><g mask="url(#clip)" transform="translate(0 2900)"><rect width="124" height="24" style="fill:#156f1f"/><rect width="71.6" height="24" style="fill:#3b9946"/></g><g mask="url(#clip)" transform="translate(0 2950)"><rect width="124" height="24" style="fill:#156f1f"/><rect width="72.8" height="24" style="fill:#3b9946"/></g><g mask="url(#clip)" transform="translate(0 3000)"><rect width="124" height="24" style="fill:#156f1f"/><rect width="75" height="24" style="fill:#3b9946"/></g><g mask="url(#clip)" transform="translate(0 3050)"><rect width="124" height="24" style="fill:#156f1f"/><rect width="76.2" height="24" style="fill:#3b9946"/></g><g mask="url(#clip)" transform="translate(0 3100)"><rect width="124" height="24" style="fill:#156f1f"/><rect width="77.4" height="24" style="fill:#3b9946"/></g><g mask="url(#clip)" transform="translate(0 3150)"><rect width="124" height="24" style="fill:#156f1f"/><rect width="78.6" height="24" style="fill:#3b9946"/></g><g mask="url(#clip)" transform="translate(0 3200)"><rect width="124" height="24" style="fill:#156f1f"/><rect width="79.8" height="24" style="fill:#3b9946"/></g><g mask="url(#clip)" transform="translate(0 3250)"><rect width="124" height="24" style="fill:#156f1f"/><rect width="81" height="24" style="fill:#3b9946"/></g><g mask="url(#clip)" transform="translate(0 3300)"><rect width="124" height="24" style="fill:#156f1f"/><rect width="82.2" height="24" style="fill:#3b9946"/></g><g mask="url(#clip)" transform="translate(0 3350)"><rect width="124" height="24" style="fill:#156f1f"/><rect width="83.4" height="24" style="fill:#3b9946"/></g><g mask="url(#clip)" transform="translate(0 3400)"><rect width="124" height="24" style="fill:#156f1f"/><rect width="84.6" height="24" style="fill:#3b9946"/></g><g mask="url(#clip)" transform="translate(0 3450)"><rect width="124" height="24" style="fill:#156f1f"/><rect width="85.8" height="24" style="fill:#3b9946"/></g><g mask="url(#clip)" transform="translate(0 3500)"><rect width="124" height="24" style="fill:#156f1f"/><rect width="87" height="24" style="fill:#3b9946"/></g><g mask="url(#clip)" transform="translate(0 3550)"><rect width="124" height="24" style="fill:#156f1f"/><rect width="88.2" height="24" style="fill:#3b9946"/></g><g mask="url(#clip)" transform="translate(0 3600)"><rect width="124" height="24" style="fill:#156f1f"/><rect width="89.4" height="24" style="fill:#3b9946"/></g><g mask="url(#clip)" transform="translate(0 3650)"><rect width="124" height="24" style="fill:#156f1f"/><rect width="90.6" height="24" style="fill:#3b9946"/></g><g mask="url(#clip)" transform="translate(0 3700)"><rect width="124" height="24" style="fill:#156f1f"/><rect width="91.8" height="24" style="fill:#3b9946"/></g><g mask="url(#clip)" transform="translate(0 3750)"><rect width="124" height="24" style="fill:#156f1f"/><rect width="93" height="24" style="fill:#3b9946"/></g><g mask="url(#clip)" transform="translate(0 3800)"><rect width="124" height="24" style="fill:#156f1f"/><rect width="94.2" height="24" style="fill:#3b9946"/></g><g mask="url(#clip)" transform="translate(0 3850)"><rect width="124" height="24" style="fill:#156f1f"/><rect width="95.4" height="24" style="fill:#3b9946"/></g><g mask="url(#clip)" transform="translate(0 3900)"><rect width="124" height="24" style="fill:#156f1f"/><rect width="96.6" height="24" style="fill:#3b9946"/></g><g mask="url(#clip)" transform="translate(0 3950)"><rect width="124" height="24" style="fill:#156f1f"/><rect width="97.8" height="24" style="fill:#3b9946"/></g><g mask="url(#clip)" transform="translate(0 4000)"><rect width="124" height="24" style="fill:#156f1f"/><rect width="100" height="24" style="fill:#3b9946"/></g><g mask="url(#clip)" transform="translate(0 4050)"><rect width="124" height="24" style="fill:#156f1f"/><rect width="101.2" height="24" style="fill:#3b9946"/></g><g mask="url(#clip)" transform="translate(0 4100)"><rect width="124" height="24" style="fill:#156f1f"/><rect width="102.4" height="24" style="fill:#3b9946"/></g><g mask="url(#clip)" transform="translate(0 4150)"><rect width="124" height="24" style="fill:#156f1f"/><rect width="103.6" height="24" style="fill:#3b9946"/></g><g mask="url(#clip)" transform="translate(0 4200)"><rect width="124" height="24" style="fill:#156f1f"/><rect width="104.8" height="24" style="fill:#3b9946"/></g><g mask="url(#clip)" transform="translate(0 4250)"><rect width="124" height="24" style="fill:#156f1f"/><rect width="106" height="24" style="fill:#3b9946"/></g><g mask="url(#clip)" transform="translate(0 4300)"><rect width="124" height="24" style="fill:#156f1f"/><rect width="107.2" height="24" style="fill:#3b9946"/></g><g mask="url(#clip)" transform="translate(0 4350)"><rect width="124" height="24" style="fill:#156f1f"/><rect width="108.4" height="24" style="fill:#3b9946"/></g><g mask="url(#clip)" transform="translate(0 4400)"><rect width="124" height="24" style="fill:#156f1f"/><rect width="109.6" height="24" style="fill:#3b9946"/></g><g mask="url(#clip)" transform="translate(0 4450)"><rect width="124" height="24" style="fill:#156f1f"/><rect width="110.8" height="24" style="fill:#3b9946"/></g><g mask="url(#clip)" transform="translate(0 4500)"><rect width="124" height="24" style="fill:#156f1f"/><rect width="112" height="24" style="fill:#3b9946"/></g><g mask="url(#clip)" transform="translate(0 4550)"><rect width="124" height="24" style="fill:#156f1f"/><rect width="113.2" height="24" style="fill:#3b9946"/></g><g mask="url(#clip)" transform="translate(0 4600)"><rect width="124" height="24" style="fill:#156f1f"/><rect width="114.4" height="24" style="fill:#3b9946"/></g><g mask="url(#clip)" transform="translate(0 4650)"><rect width="124" height="24" style="fill:#156f1f"/><rect width="115.6" height="24" style="fill:#3b9946"/></g><g mask="url(#clip)" transform="translate(0 4700)"><rect width="124" height="24" style="fill:#156f1f"/><rect width="116.8" height="24" style="fill:#3b9946"/></g><g mask="url(#clip)" transform="translate(0 4750)"><rect width="124" height="24" style="fill:#156f1f"/><rect width="118" height="24" style="fill:#3b9946"/></g><g mask="url(#clip)" transform="translate(0 4800)"><rect width="124" height="24" style="fill:#156f1f"/><rect width="119.2" height="24" style="fill:#3b9946"/></g><g mask="url(#clip)" transform="translate(0 4850)"><rect width="124" height="24" style="fill:#156f1f"/><rect width="120.4" height="24" style="fill:#3b9946"/></g><g mask="url(#clip)" transform="translate(0 4900)"><rect width="124" height="24" style="fill:#156f1f"/><rect width="121.6" height="24" style="fill:#3b9946"/></g><g mask="url(#clip)" transform="translate(0 4950)"><rect width="124" height="24" style="fill:#156f1f"/><rect width="122.8" height="24" style="fill:#3b9946"/></g><g mask="url(#clip)" transform="translate(0 5000)"><rect width="124" height="24" style="fill:#156f1f"/><rect width="124" height="24" style="fill:#3b9946"/></g><view id="0" width="124" height="24" viewBox="0 0 124 24"/><view id="1" width="124" height="24" viewBox="0 50 124 24"/><view id="2" width="124" height="24" viewBox="0 100 124 24"/><view id="3" width="124" height="24" viewBox="0 150 124 24"/><view id="4" width="124" height="24" viewBox="0 200 124 24"/><view id="5" width="124" height="24" viewBox="0 250 124 24"/><view id="6" width="124" height="24" viewBox="0 300 124 24"/><view id="7" width="124" height="24" viewBox="0 350 124 24"/><view id="8" width="124" height="24" viewBox="0 400 124 24"/><view id="9" width="124" height="24" viewBox="0 450 124 24"/><view id="10" width="124" height="24" viewBox="0 500 124 24"/><view id="11" width="124" height="24" viewBox="0 550 124 24"/><view id="12" width="124" height="24" viewBox="0 600 124 24"/><view id="13" width="124" height="24" viewBox="0 650 124 24"/><view id="14" width="124" height="24" viewBox="0 700 124 24"/><view id="15" width="124" height="24" viewBox="0 750 124 24"/><view id="16" width="124" height="24" viewBox="0 800 124 24"/><view id="17" width="124" height="24" viewBox="0 850 124 24"/><view id="18" width="124" height="24" viewBox="0 900 124 24"/><view id="19" width="124" height="24" viewBox="0 950 124 24"/><view id="20" width="124" height="24" viewBox="0 1000 124 24"/><view id="21" width="124" height="24" viewBox="0 1050 124 24"/><view id="22" width="124" height="24" viewBox="0 1100 124 24"/><view id="23" width="124" height="24" viewBox="0 1150 124 24"/><view id="24" width="124" height="24" viewBox="0 1200 124 24"/><view id="25" width="124" height="24" viewBox="0 1250 124 24"/><view id="26" width="124" height="24" viewBox="0 1300 124 24"/><view id="27" width="124" height="24" viewBox="0 1350 124 24"/><view id="28" width="124" height="24" viewBox="0 1400 124 24"/><view id="29" width="124" height="24" viewBox="0 1450 124 24"/><view id="30" width="124" height="24" viewBox="0 1500 124 24"/><view id="31" width="124" height="24" viewBox="0 1550 124 24"/><view id="32" width="124" height="24" viewBox="0 1600 124 24"/><view id="33" width="124" height="24" viewBox="0 1650 124 24"/><view id="34" width="124" height="24" viewBox="0 1700 124 24"/><view id="35" width="124" height="24" viewBox="0 1750 124 24"/><view id="36" width="124" height="24" viewBox="0 1800 124 24"/><view id="37" width="124" height="24" viewBox="0 1850 124 24"/><view id="38" width="124" height="24" viewBox="0 1900 124 24"/><view id="39" width="124" height="24" viewBox="0 1950 124 24"/><view id="40" width="124" height="24" viewBox="0 2000 124 24"/><view id="41" width="124" height="24" viewBox="0 2050 124 24"/><view id="42" width="124" height="24" viewBox="0 2100 124 24"/><view id="43" width="124" height="24" viewBox="0 2150 124 24"/><view id="44" width="124" height="24" viewBox="0 2200 124 24"/><view id="45" width="124" height="24" viewBox="0 2250 124 24"/><view id="46" width="124" height="24" viewBox="0 2300 124 24"/><view id="47" width="124" height="24" viewBox="0 2350 124 24"/><view id="48" width="124" height="24" viewBox="0 2400 124 24"/><view id="49" width="124" height="24" viewBox="0 2450 124 24"/><view id="50" width="124" height="24" viewBox="0 2500 124 24"/><view id="51" width="124" height="24" viewBox="0 2550 124 24"/><view id="52" width="124" height="24" viewBox="0 2600 124 24"/><view id="53" width="124" height="24" viewBox="0 2650 124 24"/><view id="54" width="124" height="24" viewBox="0 2700 124 24"/><view id="55" width="124" height="24" viewBox="0 2750 124 24"/><view id="56" width="124" height="24" viewBox="0 2800 124 24"/><view id="57" width="124" height="24" viewBox="0 2850 124 24"/><view id="58" width="124" height="24" viewBox="0 2900 124 24"/><view id="59" width="124" height="24" viewBox="0 2950 124 24"/><view id="60" width="124" height="24" viewBox="0 3000 124 24"/><view id="61" width="124" height="24" viewBox="0 3050 124 24"/><view id="62" width="124" height="24" viewBox="0 3100 124 24"/><view id="63" width="124" height="24" viewBox="0 3150 124 24"/><view id="64" width="124" height="24" viewBox="0 3200 124 24"/><view id="65" width="124" height="24" viewBox="0 3250 124 24"/><view id="66" width="124" height="24" viewBox="0 3300 124 24"/><view id="67" width="124" height="24" viewBox="0 3350 124 24"/><view id="68" width="124" height="24" viewBox="0 3400 124 24"/><view id="69" width="124" height="24" viewBox="0 3450 124 24"/><view id="70" width="124" height="24" viewBox="0 3500 124 24"/><view id="71" width="124" height="24" viewBox="0 3550 124 24"/><view id="72" width="124" height="24" viewBox="0 3600 124 24"/><view id="73" width="124" height="24" viewBox="0 3650 124 24"/><view id="74" width="124" height="24" viewBox="0 3700 124 24"/><view id="75" width="124" height="24" viewBox="0 3750 124 24"/><view id="76" width="124" height="24" viewBox="0 3800 124 24"/><view id="77" width="124" height="24" viewBox="0 3850 124 24"/><view id="78" width="124" height="24" viewBox="0 3900 124 24"/><view id="79" width="124" height="24" viewBox="0 3950 124 24"/><view id="80" width="124" height="24" viewBox="0 4000 124 24"/><view id="81" width="124" height="24" viewBox="0 4050 124 24"/><view id="82" width="124" height="24" viewBox="0 4100 124 24"/><view id="83" width="124" height="24" viewBox="0 4150 124 24"/><view id="84" width="124" height="24" viewBox="0 4200 124 24"/><view id="85" width="124" height="24" viewBox="0 4250 124 24"/><view id="86" width="124" height="24" viewBox="0 4300 124 24"/><view id="87" width="124" height="24" viewBox="0 4350 124 24"/><view id="88" width="124" height="24" viewBox="0 4400 124 24"/><view id="89" width="124" height="24" viewBox="0 4450 124 24"/><view id="90" width="124" height="24" viewBox="0 4500 124 24"/><view id="91" width="124" height="24" viewBox="0 4550 124 24"/><view id="92" width="124" height="24" viewBox="0 4600 124 24"/><view id="93" width="124" height="24" viewBox="0 4650 124 24"/><view id="94" width="124" height="24" viewBox="0 4700 124 24"/><view id="95" width="124" height="24" viewBox="0 4750 124 24"/><view id="96" width="124" height="24" viewBox="0 4800 124 24"/><view id="97" width="124" height="24" viewBox="0 4850 124 24"/><view id="98" width="124" height="24" viewBox="0 4900 124 24"/><view id="99" width="124" height="24" viewBox="0 4950 124 24"/><view id="100" width="124" height="24" viewBox="0 5000 124 24"/></svg>
